<?xml version="1.0" standalone="no"?><svg xmlns="http://www.w3.org/2000/svg" viewBox="0 0 1440 320"><path fill="#2f2e41" fill-opacity="1" d="M0,192L24,181.3C48,171,96,149,144,144C192,139,240,149,288,133.3C336,117,384,75,432,96C480,117,528,203,576,213.3C624,224,672,160,720,149.3C768,139,816,181,864,170.7C912,160,960,96,1008,106.7C1056,117,1104,203,1152,229.3C1200,256,1248,224,1296,213.3C1344,203,1392,213,1416,218.7L1440,224L1440,320L1416,320C1392,320,1344,320,1296,320C1248,320,1200,320,1152,320C1104,320,1056,320,1008,320C960,320,912,320,864,320C816,320,768,320,720,320C672,320,624,320,576,320C528,320,480,320,432,320C384,320,336,320,288,320C240,320,192,320,144,320C96,320,48,320,24,320L0,320Z"></path></svg>